<svg xmlns="http://www.w3.org/2000/svg" xml:space="preserve" x="0px" y="0px" viewBox="0 0 4737.1 1076.8"><g fill="#FFF"><path d="M1429.7 881.7s-45-25.9-47.4-30c0 0-4.8-4.2-4.8-10.5 0 0-1.7-14.2 10-20.3 0 0 5-6.2 24.4-6.2 0 0 15.1.1 27.6 8.5l-1.1-17.7s-35.9-8.7-55.3 1c-19.5 9.8-24.2 24.3-24.2 34.6s5.8 25.3 21.4 33.8c0 0 40.2 20.1 50.1 32.2 0 0 9.3 13 .2 29.2 0 0-9.8 14-31.5 14 0 0-23.7 0-38.3-8.4l1.4 16.4s21.3 3.3 37.2 3.3c0 0 25.8 1 38.7-9.2 0 0 16.4-12.5 16.4-31.8-.1.2 3.2-22.5-24.8-38.9M1507.8 946.1v-66.8h49c4.7 0 7.2 1.9 7.2 1.9v-13.7h-56.1v-51h50.6c2.9.1 5.7 1.1 8 2.8l-.6-16.5h-78.1c1.8 3.6 2.8 7.5 2.8 11.5v134s.6 2.2-3 10h84.1l2.2-15.2c-3.6 3-15.1 2.8-15.1 2.8l-51 .2zM1678.6 945.9c-33.4 0-60.6-29.5-60.6-65.8s27.1-65.9 60.6-65.9 60.6 29.5 60.6 65.9-27.1 65.8-60.6 65.8m0-143.8c-42.6 0-77.2 34.9-77.2 78s34.6 77.9 77.2 77.9 77.2-34.8 77.2-77.8-34.6-78-77.2-78.1M2774.9 945.9c-33.4 0-60.6-29.5-60.6-65.8s27.1-65.9 60.6-65.9 60.6 29.5 60.6 65.9-27.1 65.8-60.6 65.8m0-143.8c-42.6 0-77.1 34.9-77.1 78s34.6 77.8 77.1 77.8 77.2-34.8 77.2-77.8-34.5-78-77.2-78M1913 803h-20.8c2.2 1.5 2.6 7.8 2.6 7.8v94.3c0 23.4-19 42.5-42.4 42.5s-42.5-19-42.5-42.5l.2-2.2-.3-99.5-16.7-.3v102.5c.4 30.1 26.8 54.4 59.2 54.4 32.8 0 59.2-24.8 59.2-55.2h-.2v-94.2c.2-2.6.7-5.2 1.7-7.6M1976.7 947.1V812.9c0-6.7 2.7-9.7 2.7-9.7h-21.7c1.4 1.9 2 4.3 1.8 6.7v148.7h83.2l4.8-14c-5.1 2.9-13.2 2.7-13.2 2.7l-57.6-.2zM3256.1 947.1V812.9c0-6.7 2.6-9.7 2.6-9.7h-21.6c1.4 1.9 2 4.3 1.7 6.7v148.7h83l4.9-14c-5.1 2.9-13.3 2.7-13.3 2.7l-57.3-.2zM2287.2 813.9v109l-108.7-120h-17.6s3.1 3.7 3.1 11.9v132.6s-.3 6.7-2.2 10.5v.1h17.2c-1.9-4.1-1.9-11.2-1.9-11.2v-122l122 132.5v-144c0-4.5 2-10.4 2-10.4h-16.6c3 3 2.7 11 2.7 11M3013 813.9v109l-108.7-120h-17.7s3.1 3.7 3.1 11.9v132.6s-.3 6.7-2.2 10.5v.1h17.2c-1.9-4.1-1.9-11.2-1.9-11.2v-122l122.1 132.5v-144c0-4.5 2.2-10.4 2.2-10.4h-16.8c3 3 2.7 11 2.7 11M2373.5 887.1l24.7-62.8 29.8 62.8h-54.5zm34.2-84.2h-19.9s2.6 6.5.6 12.9l-50.3 128s-6.1 12.1-9.7 14.7h18.8c-1.1-4.8 1.8-9.6 1.8-9.6l20.6-50.1h63.5l21.4 44.2c3.6 9.1 2.7 15.5 2.7 15.5h26.6c-10-13-14.2-22.5-14.2-22.5l-61.9-133.1zM3105.9 887.1l24.7-62.8 29.7 62.8h-54.4zm30.3-84.2h-19.8s2.6 6.5.7 12.9l-50.2 128s-6.1 12.1-9.6 14.7h18.6c-1-4.8 1.8-9.6 1.8-9.6l20.6-50.1h63.4l21.4 44.2c3.6 9.1 2.8 15.5 2.8 15.5h26.5c-10-13-14.2-22.5-14.2-22.5l-62-133.1zM2487.2 803.3l-1.2.2-3.7 13.3s3.3-1.8 9.6-1.8h41.9v135s-.6 7-1.4 8.9h22.5s-2.5-5.2-2.5-9.2V815.4h32.6s12.3 0 17.6 3.3l-3-15.5h-112.4zM2660.2 802.9h-21.4s2.6 4.4 2.6 8.7v136.7s-.4 6.3-2.6 10.7h21.4c-1.8-3.4-2.7-7.2-2.6-11.1V811.2c-.1 0 .9-6.4 2.6-8.3M4348.6 880.7s-45-25.8-47.5-30c-2.9-2.7-4.7-6.5-4.8-10.5 0 0-1.6-14.2 10-20.3 0 0 5-6.1 24.5-6.1 0 0 15 .1 27.6 8.4l-1.1-17.7s-36-8.5-55.4 1.1-24.1 24.2-24.1 34.5 5.9 25.2 21.4 33.9c0 0 40.2 20.1 50 32.2 0 0 9.5 13 .3 29.2 0 0-9.8 14.1-31.5 14.1 0 0-23.6 0-38.4-8.5l1.4 16.4s21.5 3.3 37.2 3.3c0 0 25.9.9 38.6-9.2 0 0 16.5-12.5 16.5-31.5.1 0 3.3-22.9-24.7-39.3M4039.7 946v-66.8h48.9c2.6-.1 5.1.6 7.2 2v-13.8h-56.1v-50.8h50.6c2.9.1 5.7 1.1 8.1 2.7l-.7-16.5h-78.1c1.8 3.6 2.8 7.5 2.9 11.5v133.9s.6 2.4-3 10.2h84.2l2.2-15.3c-3.6 3.2-15.2 2.9-15.2 2.9h-51zM3540.2 802.1h-20.8c2.3 1.4 2.6 7.8 2.6 7.8v94.3c0 23.4-19 42.4-42.4 42.4s-42.4-19-42.4-42.4l.1-2.2-.4-99.7-16.6-.3v102.6c.4 30.1 26.8 54.4 59.1 54.4 32.8 0 59.3-24.7 59.3-55.2h-.1v-94.2c.1-2.5.7-5.1 1.6-7.5M3717.9 813.8v109l-108.8-119.9h-17.6s3.1 3.6 3.1 11.8v132.6s-.3 6.8-2.2 10.6v.2h17.2c-1.9-4.1-1.9-11.2-1.9-11.2V824.7l122.1 132.5V813.1c0-4.4 2-10.2 2-10.2h-16.6c3 2.9 2.7 10.9 2.7 10.9M4466.5 802.8l-1.2.2-3.8 13.3s3.4-1.8 9.6-1.8h41.9v135s-.8 7-1.5 8.8h22.4s-2.4-5.2-2.4-9.2V814.9h32.6s12.2 0 17.5 3.4l-3-15.4-112.1-.1zM4431.6 802.2h-21.5s2.8 4.5 2.8 8.8v136.5s-.4 6.3-2.6 10.8h21.2c-1.8-3.4-2.6-7.2-2.6-11V810.7s.9-6.5 2.7-8.5M3808.6 802.2h-21.5s2.6 4.5 2.6 8.8v136.5s-.4 6.3-2.6 10.8h21.4c-1.8-3.4-2.7-7.2-2.6-11V810.7c-.1 0 .8-6.5 2.7-8.5M3969.5 813.3l-52.8 116.5-53.7-116.5c-4.2-7.5-2.1-10.9-2.1-10.9h-22.6c4.4 7.5 8.4 15.2 12 23.1l65 136.1 67.4-144.5s6.1-11.3 11-14.8h-22.1c0 .2 2.1 3.6-2.1 11M4239.9 934.1l-48.5-56.9c14.4 0 29.4-12.8 29.4-12.8 11.1-9.5 11.1-26.7 11.1-26.7-1-16.2-11.4-24.2-11.4-24.2-12-12.2-31.1-11.2-31.1-11.2-30.1 0-42.4 1.5-42.4 1.5 1.6 2.1 2.5 4.6 2.5 7.2v139.3c-.1 2.6-.7 5.1-1.8 7.5h21.2c-1.5-2.1-2.3-4.7-2.3-7.2V871h.2l-.2-.1v-51.6l.4-1.7s.2-3.8 14.4-3.8c0 0 15.9-.2 22.5 7.4 0 0 9.5 7.8 9.5 17.6 0 0 .6 16-7.8 21.8 0 0-10.2 10.4-38.7 10.5l69.8 86.6h24.5c-5.4-4.5-21.3-23.6-21.3-23.6M4698.6 808.6l-33.4 57-35.5-55.6c-2.5-4.7-1.5-7.2-1.5-7.2H4603c3.6 3.3 6.7 7.2 9.1 11.4l41.1 64v71.7s.1 5.3-1.5 8.2h22.1c-1.7-1.8-2.5-7.6-2.5-7.6v-72l37.4-57.8c11.4-18.8 12.5-18.3 12.5-18.3H4700c-.1 2.2-.6 4.4-1.5 6.4M1495.8 237c-1.3-19.6-.6-56.1-.6-56.1h-53.4s.8 36.4-.5 56.1c-3.9 60.6-28.4 156.7-119.8 220.7l26.8 39.5s78.6-43 120.3-150.5c41.8 107.5 120.3 150.5 120.3 150.5l26.8-39.5c-91.5-63.9-116.1-160.1-119.9-220.7M2284.7 157c27.7 0 50.1 22.3 50.2 50s-22.3 50.1-50 50.2-50.1-22.3-50.2-50c0-27.7 22.4-50.2 50-50.2m0 145.8c52.8 0 95.6-42.9 95.6-95.7s-42.9-95.6-95.7-95.6c-52.8 0-95.6 42.9-95.6 95.7 0 52.8 42.7 95.6 95.4 95.6h.3M3731 344.2c0 26.3-21.3 47.6-47.6 47.6s-47.6-21.3-47.6-47.6 21.3-47.5 47.6-47.6c26.3 0 47.6 21.3 47.6 47.6 0-.1 0 0 0 0m-141.3 0c0 51.8 42 93.7 93.8 93.7s93.7-42 93.7-93.8-42-93.7-93.8-93.7c-51.7 0-93.7 42-93.7 93.8 0-.1 0 0 0 0M4651 436.8s-5.9 91.2-29.4 143.3h50.5c23-62.8 26.7-144.8 26.7-144.8v-241h-335v44.8H4651v197.7zM1689.6 647.6h52.5V157.2h-52.5v142.5h-95.5v48.1h95.5zM3106 360.6h39.5v286.9h52.4V157.2h-52.4v155.3H3106V157.2h-52.6v490.3h52.6z"/><path d="M3886.2 647.8h52.6V454.4h-19V290.3h70.4v-42.9h-70.4v-90.2h-52.6v297.2h-295.7v44.9h314.7zM2457.9 598.7h-301.6v-37h301.6V427.8h-149.1v-61.3h173.8v-46.6h-398.2v46.6h172.7v61.3h-148v46.7h300.7v40.6h-300.7v28h-.9v102.2H2457.9zM4569.9 580.7V362.2h-50.6v218.5h-58.5V362.2h-50.7v218.5h-65.7v44.8h392.7v-44.8z"/><path d="M3802.7 196.2h-99.4v-44.8h-51.7v44.8h-99.4v43h250.5zM3002.7 495.7V449H2861V244.5h135.2v-46.6h-187V496h51.8v-.3zM607.5 130.8c-17-37.8-74-11.8-74-11.8 48 30.4 74 11.8 74 11.8m-94.2-5.6c6 0 10.8-4.8 10.8-10.8s-4.8-10.8-10.8-10.8c-5.9 0-10.7 4.8-10.8 10.8-.1 6 4.8 10.8 10.8 10.8-.1.1-.1.1 0 0m130.5 9.3s-20.7-.4-39.5 10.9l60.7.9c1-.8 1.1-.8 2.1-1.6 0 0-30.2-81.9-110.7-91.9 0 0 19.4 60.6 87.4 81.7m42.6 15.9c0-4.4-3.6-8-8-7.9-4.4 0-8 3.6-7.9 8 0 4.4 3.6 7.9 8 7.9 4.3.1 7.9-3.5 7.9-8 0 .1 0 .1 0 0m-324.1-4.1 60.7-.9c-18.9-11.4-39.5-10.9-39.5-10.9 68-21.2 87.4-81.8 87.4-81.8-80.4 10-110.6 92-110.6 92l2 1.6m-19.5 8.6c0 4.4 3.6 8.1 8 8.1s8.1-3.6 8.1-8-3.6-8.1-8-8.1c-4.5 0-8.1 3.5-8.1 8m5 64.7c-43.8-31.1-107.6-7-107.6-7 56.7-43.1 56.3-112 56.3-112-72.1 37-72.6 124.2-72.6 124.2 88.3 26.2 123.8-5.1 123.8-5.1m24.4-17.1.6-29.5c-32.9-9.6-66-3.4-66-3.4C370 137 381.6 69 381.6 69c-77.5 23.8-93 109.8-93 109.8 35.8 17.8 63.5 23.2 83.6 23.7m349.5-37.8s-26.3-7.9-59.6 3.4v30.4c20.2-.4 40.8-5.3 78-24.9 0 0-17.6-85.5-95.5-107.5-.1-.1 13.1 67.6 77.1 98.6m-302-30.3s26.6 17.6 73.5-14.7c0 0-58-23.8-73.5 14.7M825.4 544h-33.9v42.9h33.9V544zM734 249.9l-17.5 20.9 94.8 94.9 19.2-19.2-96.5-96.6zm184.5-2.8-86.9-86.9-77.9 84.6 83.5 82.5 81.3-80.2zm-708.4-9.7c0 4.4 3.6 8.1 8.1 8.1s8.1-3.6 8.1-8.1-3.6-8.1-8.1-8.1c-4.4 0-8 3.5-8.1 7.9v.2M853.4 329c15 4.2 33.3 7.5 55.8 8.4 0 0 10.2-30.4 5.8-67.2l-29.3 28.1c3.3 7.8 7.4 15.3 12.2 22.4-6.6-5.2-13.6-9.8-21-13.9L853.4 329zm-26.3 425h-33.9v42.9h33.9V754zm-49.4-556.3 19.7-19.9c-8.3-28.1-25.3-62.1-67.2-82.3.1-.1-1.7 60.1 47.5 102.2m176.5 300.4c0 4.4 3.6 8.1 8 8.1s8-3.6 8-8-3.6-8.1-8-8.1-8 3.5-8 7.9v.1M848.5 99.4c25.3 12.6 45.8-.6 45.8-.6 28.2-13.8 48.7 5.3 48.7 5.3 19.7 15.4 16.5 35.7 16.5 35.7 0 15.6-4.5 16.6-4.5 16.6-9.4 6.4-7-4.4-7-4.4.3-.1 2.2-7.6 2.2-7.6 3.7-35-27.8-40.1-27.8-40.1-33.4-5.8-41.7 25-41.7 25-1.9 7.4-2.4 15.1-1.3 22.7l-41.7-41.7 2 35.2 93.2 93.1H966l-33.8-33.8c10.9 3.4 22.1 5.5 33.5 6.2 47.5-2.9 52.5-48.4 52.5-48.4 12.5-47.5-32.5-85.9-32.5-85.9-30-25.8-75.5-27.9-75.5-27.9C845.5 41.3 822.6 0 822.6 0 815 18.8 817 46.6 817 46.6c4.3 42.8 31.5 52.8 31.5 52.8m117.1 385.5s54.2-68.4 20.9-142.4c0 0-43.3 53.6-26 122.8 0 0-34.8-58.7-88.3-61.8 0 0 8.2 46.7 93.4 81.4m-54.9-125.6c4.4 0 8-3.6 8-8s-3.6-8.1-8-8.1-8 3.6-8 8 3.5 8 7.9 8c0 .2 0 .2.1.1m-162-130.2 24.3-25.2c-20.8-4.8-59.7-11.8-91.2 11.8 0-.1 16.2 18.3 66.9 13.4m195.1 179.5s41.5-76.8-4.1-143.9c0 0-33.3 60.3-4.3 125.4 0 0-44.4-51.7-97.7-45.5 0 .1 16.2 44.7 106.1 64M659.5 995.2c0 4.4 3.6 8 8 8s8-3.6 8-8-3.6-8-8-8-8 3.6-8 8m40.3-7.7s45.5-39.1 46-88l-16.2.7c-14.7 12.9-36.2 40.3-48.2 95.8 0 0 76.8 41.5 143.8-4.1 0 0-60.3-33.4-125.4-4.4m-74.9 25s58.7-34.8 61.7-88.3c0 0-46.7 8.2-81.4 93.5 0 0 68.4 54.1 142.4 21-.1 0-53.7-43.4-122.7-26.2m-78.9 16.8c61-28.2 74.5-75.6 74.5-75.6-47.4 3.3-88 74.5-88 74.5 53 54.2 121.9 47.4 121.9 47.4-31.6-41.8-108.3-46.3-108.4-46.3m-33.8-24.8v20c-9.2-14.5-45.4-67.5-86.2-70 0 0 13.9 47.2 75 75 0 0-76.8 5-108 47 0 0 66.9 6.1 119.2-46v32.7h20.3v-58.7h-20.3zm281-185.1v42.9l191.9 159.2h38.3L828.2 819.4h-35zm-23.7 130.4c11.7-15 20.5-32.1 26-50.3l-32.7-.5c-5.2 16-9.1 36.5-10 62.3 0 0 70.7 23.5 127.2-17.5l-21.8-17.5c-24.2-1.3-57.3 2.3-88.7 23.5m-380.8 48.5c0-4.4-3.6-8.1-8-8.1s-8.1 3.6-8.1 8 3.6 8.1 8 8.1c4.4.1 8-3.5 8.1-8 0 .1 0 .1 0 0m536.5-224.5s11-67.3-28-104c0 0-23.7 41 19.3 122.4 0 0 85.5-17.5 107.5-95.5 0 0-67.7 13.2-98.8 77.1m-79.1 142.4-28.3-23c.6 7.2 1.5 14.8 2.8 23 8.5.7 17 .7 25.5 0m-42.8 10.5c4.4 0 8.1-3.6 8.1-8s-3.6-8.1-8-8.1-8.1 3.6-8.1 8v.1c0 4.4 3.6 8 8 8M130.1 809.3c0 4.4 3.6 8.1 8 8.1s8.1-3.6 8.1-8-3.6-8.1-8-8.1h-.1c-4.4 0-8 3.6-8 8M71.5 653.4c66.8-63.4 57.4-109.8 57.4-109.8C80.1 565.9 69 633.2 69 633.2 60 562.5.1 528.4.1 528.4c-3.9 81 71.4 125 71.4 125m.2 11.2c0 4.4 3.6 8 8 8s8-3.6 8-8-3.6-8-7.9-8c-4.5-.1-8.1 3.5-8.1 8 0-.1 0-.1 0 0m114.7-502.8-62.2-62.9C85.6 60.4 39.9 85.8 39.9 85.8l122.6 122.1c8.2-31.4 23.9-46.2 23.9-46.1m-47.9 38.4L32.7 94.4s-44.2 31.8-9.9 105.8h115.7zM92.6 729.8c54.8-74 37.4-118.2 37.4-118.2-44.2 30.5-43.3 98.7-43.3 98.7-21.2-68-86-91.2-86-91.2 10.1 80.5 92 110.7 91.9 110.7m49.2 209.7c9.6-5.2 19.9-8.6 30.7-10.2l-20.1-4.8-1.9 2.5c.6-.9 1.3-1.7 1.9-2.5l-89.4 94s-10.2 14.7-.5 24.3c0 0 9 7.3 21.5-1.1l87.1-76.2c-9-4.4-28.2-20.4-29.3-26m169.5-38.2-11.4-.1c-.6 50.6 48 90.5 48 90.5-65.7-27.5-125.2 7.3-125.2 7.3 68.1 44 143.9.7 143.9.7-14.7-61.5-40.6-87.9-55.3-98.4m-184.5-99.9c41.1-82.3 16.4-122.8 16.4-122.8-38.2 37.7-25.6 104.7-25.6 104.7C84.8 720 16.9 708.4 16.9 708.4c23.9 77.5 109.8 93 109.9 93m232.9 126.7c4.4 53.5 63.8 86.9 63.8 86.9-69.4-15.7-122 29-122 29 74.7 31.5 141.9-24.2 141.9-24.2-36.8-84.5-83.7-91.7-83.7-91.7M168.3 281.3c91.5 10.5 121-26.6 121-26.6-48.4-23-107.1 11.8-107.1 11.8 48.4-52.3 36-120.1 36-120.1-64.7 48.9-49.9 135-49.9 134.9m4.3 584.9c26.1-88.2-5.2-123.8-5.2-123.8-31 43.7-7 107.5-7 107.5-43.1-56.7-112-56.2-112-56.2 37 72.1 124.3 72.5 124.2 72.5M841.2 794c-3.8 4.3-6.4 9.5-7.6 15.1l17 17.7c-.9-11.5-4.1-22.7-9.4-32.8M272.4 440.7l31.4 27.6h70.7c-3.4-5.6-2.3-27-2.3-27l-99.8-.6zm175.4-207v-39.5h123v56.4h40.6v40.6H572v18.1h39.5v44H572v132.1h-33.9l-46.9-46.9-42.9 42.9-31-31 71.1-71.1 36.7 36.7V233.7h-77.3zM384.5 423c0 93.7 58.8 137 131.2 137 72.5-.1 131.3-43.2 131.3-137V155.8H384.6s-.1 173.6-.1 267.2m-96.7-154.1s-7.9 11.5-38.1 18l38.1 35.2v-53.2zm335.6 389.9c8.5 0 8.5-6.5 8.7-13v-61h17.5v64.5c0 9.4-1 25.3-26.3 25.3-16.3 0-26-7.6-26-24.2v-65.8h17.5V642c-.1 6.7-1 16.8 8.6 16.8m45 33.7V709h-17.8v19.2h15.7v16.5h-15.7v20h18v16.5h-35.5v-88.7h35.3zm-4.8-107.8h19.7l5 12.3c1.5 4.3 3.3 8.9 4.2 13.5h.2c1-4.6 2.4-9.1 4-13.5l5.3-12.3h19l-18.9 42.8 20.3 45.7h-20.3l-5.6-14c-1.7-4.5-2.8-8.8-4-13.2h-.2c-1.3 4.5-2.3 8.8-3.8 13.2l-5.2 14h-19.7l18.8-45.7-18.8-42.8zm53.3 196.4-3.2-15h-17.8l-3.2 15h-17.3l20.5-88.5h18.5l21.2 88.5h-18.7zm-112 0-4.2-63.8h-.3l-2.8 21.8-7.5 42h-13.5l-8.6-42.4-3-19.8v-1.7h-.2l-2.6 63.8h-18.7l7.8-88.5h23l8.6 52.2h.2l7-52.2h23.5l9.2 88.5-17.9.1zm-56.8-196.4h17.5v72.1h18.3v16.4h-35.8v-88.5zM525.7 571v300.2s17-16.9 40.7-16.9h186.2V481.9H652.1s-28.5 87.9-126.4 89.1m-75.3 38.6c0-6.3-3-11.5-11.9-11h-2.4v23.6l3.1.2c8.1-.1 11.2-5.5 11.2-12.8m254.2 105.6h-.2l-1.8 13.4-3.8 23.6H711l-4.5-23.6-1.9-13.4zM233.3 320.9c-3.1 2.5-25.5 23-59.5 27.1l11.6 10.9 121.9-.5-37.9-37.8-19.1-19.2c0-.1-13.6 17.2-17 19.5M913.2 800c0-4.4-3.6-8-8-8s-8 3.6-8 8 3.6 8 8 8 8-3.6 8-8m47-137.6c4.4 0 8-3.6 8-8.1 0-4.4-3.6-8-8.1-8-4.4 0-8 3.6-8 8 .1 4.5 3.7 8.1 8.1 8.1m-51.6-59.9s-16.2 44.6 40.2 117.3c0 0 81.2-32.2 89.3-112.8 0 0-64.3 24.8-83.8 93.2 0 0-.9-68.2-45.7-97.7m61.5 20.1s-12.7-67-62-88.2c0 0-8.2 46.7 60 108.5 0 0 74.3-45.8 68.3-126.6.1-.1-59 35.5-66.3 106.3m-95.8 111.3s-30.5 36.3-2.3 124c0 0 87.2-2.5 122.5-75.5 0 0-68.9 1.2-110.7 58.9 0 .1 22.6-64.3-9.5-107.4m97.9-190.3s-24-63.8-76.3-76.1c0 0 0 47.4 77.9 96.4 0 0 65.2-58 45.3-136.6 0 0-52 45.3-46.9 116.3m-56 351c14.6-9 27.1-20.9 36.7-35.1 0 0-29.1-3.8-63.2 7.7l26.5 27.4zm-508-166.5-2-13.4h-.2l-2 13.4-3.8 23.5h12.4l-4.4-23.5zM149 205c-55.2 59.4-25.7 141.6-25.7 141.6 91.9-5.6 114.6-47.2 114.6-47.2-51.8-14.2-103.5 30.2-103.5 30.2C172.9 269.6 149 205 149 205m344.6 711h52.9s3.5-23 18.5-23h219.9V506l-21.8-23v383.4h-197s-26.5 2.3-47.2 27.6c0 0-16.1-24.2-50.6-26.5H276v-381l-23.6 23.6V893h214.7s26.5 1.1 26.5 23M82.1 508.7c0-4.4-3.6-8-8.1-8-4.4 0-8 3.6-8 8.1 0 4.4 3.6 8 8.1 8 4.4-.1 7.9-3.7 8-8.1M75 475.6c15.7-69.4-28.9-122-28.9-122-31.6 74.6 24.2 141.8 24.2 141.8 84.4-36.7 91.6-83.6 91.6-83.6-53.5 4.3-86.9 63.8-86.9 63.8M15.5 439C-2.6 518 64 574.5 64 574.5c76.7-50.8 75.6-98.2 75.6-98.2-51.9 13.5-74.5 77.9-74.5 77.9C68.5 483 15.5 439 15.5 439M103 281.4s-4.6-28.7 25.3-71.6h-101s4.3 11.7 75.7 71.6m266.9 149.4v-11l-52.5-52.5h-123l69.4 63.5h106.1zM243.2 875c.3 3.7 1-.8 1-.8v-52.4l-8.6 9.6c4.8 13.2 6.5 32.1 7.6 43.6M113.9 360.5c0 4.4 3.6 8 8 7.9 4.4 0 8-3.6 7.9-8 0-4.4-3.6-7.9-8-8-4.4 0-7.9 3.6-7.9 8.1m128.8 573.1c4.4 0 8.1-3.6 8.1-8s-3.6-8.1-8-8.1-8.1 3.6-8.1 8c-.1 4.5 3.5 8.1 8 8.1-.1 0-.1 0 0 0M298.8 334l71.1 70v-54.1l-71.1-71.1V334zm-55.3 416h-33.9v42.8h33.9V750zm471.3-460.5-55.3 60.1.5 96.1s-1.7 15.9-5.1 23.7h35.5L792 367.8l-77.2-78.3zM415.2 584.2v16.4h-17.8v19.2H413v16.5h-15.6v20h18v16.4H380v-88.4l-24.5 88.4h-14.3l-25.6-88.5h18.8l10.6 42.5c1.5 5 2.1 10.1 3.1 15.1h.2c1-5.2 1.3-10.2 2.7-15.3l10.7-42.2h53.5zm22 196.3h-18.6l-3.3-14.9h-17.8l-3.2 14.9H377l20.5-88.5h18.4l21.3 88.5zm-18.5-196.3h17.6c11.1 0 31 1.2 31 25.3 0 9.8-3.9 18-12.5 22.8l15.4 40.3h-18.4l-15.4-40.8h-.2v40.8h-17.5v-88.4zm55.1 0h17.5v88.5h-17.5v-88.5zm-13 197.7c-5 0-11-1.5-15-4.5v-16.7c4.1 2.8 8.1 4.8 13.3 4.8 5.6 0 10.1-3.8 10.1-9.7 0-6.8-5.5-9.4-10.4-13-10.1-6.8-16.3-13.3-16.3-26.2 0-14 8.1-26.1 23.1-26.1 5.5 0 10.8 1.5 15.5 4.3v17c-3.5-3-7.9-5.7-12.6-5.7-5.5 0-8.9 3.3-8.9 8.7 0 14.5 26.6 15.4 26.6 39.3 0 15.8-9 27.7-25.4 27.8m-87.1-73.6h-13.8v72.1h-17.5v-72.1h-13.7v-16.4h45v16.4zm-87.3-226.4v372.5H471c20.9.5 42.4 16.9 42.4 16.9v-298C401.5 570.9 379 481.9 379 481.9h-92.6zm8 484.8c-1.8-28.4-6.9-49.1-13.3-65.7h-32.7c8.8 31 29 54.5 29 54.5C217.5 917 152.8 941 152.8 941c59.4 55.2 141.6 25.7 141.6 25.7M183.4 370 167 354.6C127.2 364.7 98.3 400 98.3 400c18.7-44.6 8.6-86.5.2-108.6l-12-9.8C52 347 90.2 418.7 90.2 418.7c53.1-12.7 80-33.7 93.2-48.7M94.2 871.8c48.9 64.6 134.9 49.8 134.9 49.8 10.4-91.5-26.6-121.1-26.6-121.1-23 48.5 11.8 107.2 11.8 107.2-52.3-48.2-120.1-35.9-120.1-35.9m148.2-324.5h-33.9v42.9h33.9v-42.9z"/></g></svg>